<svg width="2544" height="1979" viewBox="0 0 2544 1979" fill="none" xmlns="http://www.w3.org/2000/svg">
<path d="M485.863 411.61C565.98 328.682 672.395 341.731 783.838 369.592C803.01 374.385 822.347 379.621 841.697 384.86C878.319 394.777 914.986 404.706 950.666 411.666C1005.28 422.321 1058.2 426.171 1106.25 412.409C1154.38 398.621 1199.29 363.042 1243.19 318.673C1272.16 289.402 1300.91 256.066 1329.97 222.374C1344.94 205.017 1359.99 187.565 1375.19 170.525C1420.03 120.274 1466.33 73.4508 1516.44 42.1383C1566.47 10.8726 1620.15 -4.83778 1679.9 6.87949C1739.96 18.6548 1774.12 43.667 1794.13 76.2145C1814.26 108.947 1820.34 149.704 1823.29 193.564C1824.12 205.831 1824.7 218.353 1825.29 230.987C1826.79 263.265 1828.32 296.276 1834.07 327.637C1842.09 371.438 1858.41 412.564 1894.6 445.08C1946.62 491.817 2009.76 502.436 2069.34 512.457C2075.5 513.493 2081.62 514.522 2087.69 515.584C2152.7 526.969 2211.63 542.067 2248.17 607.125C2283.84 670.642 2272.45 727.08 2252.93 786.708C2249.78 796.312 2246.42 806.006 2243.02 815.826C2225.35 866.808 2206.51 921.162 2210.66 983.833C2214.4 1040.35 2234.88 1090.88 2261.49 1137.77C2280.56 1171.37 2302.88 1203.26 2324.49 1234.15C2332.99 1246.29 2341.38 1258.28 2349.42 1270.15C2378.02 1312.38 2402.24 1353.23 2412.18 1395.31C2422.08 1437.2 2417.83 1480.44 2389.13 1527.62C2339.97 1608.42 2265.45 1621.59 2181.56 1626.7C2170.05 1627.4 2158.37 1627.95 2146.55 1628.5C2072.51 1631.97 1993.41 1635.67 1921.71 1678.95C1858.39 1717.17 1820.37 1767.71 1783.99 1816.09C1779.76 1821.71 1775.56 1827.3 1771.34 1832.83C1730.75 1886.11 1688.66 1934.79 1611.93 1960.49C1517.18 1992.23 1441.63 1969.68 1364.14 1937.68C1351.93 1932.64 1339.67 1927.36 1327.27 1922.02C1261.08 1893.52 1191.12 1863.39 1105.56 1859.42C1032.03 1856 966.8 1878.48 905.751 1899.52C891.621 1904.39 877.715 1909.18 863.982 1913.56C790.727 1936.91 722.077 1948.65 648.164 1899.9C599.548 1867.83 580.847 1824.76 563.401 1779.02C562.196 1775.86 560.996 1772.69 559.794 1769.51C543.614 1726.71 526.755 1682.12 485.745 1644.09C435.157 1597.18 373.598 1587.01 315.233 1577.37C310.183 1576.53 305.157 1575.7 300.164 1574.85C237.212 1564.14 179.406 1550.37 141.609 1488.58C113.808 1443.13 109.65 1402.1 119.892 1362.85C130.183 1323.42 155.064 1285.55 185.85 1246.68C199.696 1229.2 214.681 1211.58 230.012 1193.55C231.707 1191.56 233.406 1189.56 235.108 1187.56C252.192 1167.46 269.58 1146.83 286.093 1125.41C319.113 1082.58 348.751 1036.44 365.643 984.563C394.241 896.735 393.143 813.655 392.106 735.279C391.85 715.935 391.598 696.879 391.798 678.108C392.805 583.174 405.248 495.053 485.863 411.61Z" fill="#330043" stroke="#330043" stroke-width="6"/>
<path d="M312.331 966.497C387.238 736.052 268.096 537.485 440.008 359.234C611.92 180.983 896.429 416.637 1096.49 359.234C1205.12 328.065 1299.23 189.409 1403.6 77.2461M2266.7 966.497C2256.35 809.954 2382.6 703.478 2305.91 566.69C2227.19 426.299 2051.5 502.09 1931.92 394.482C1874.39 342.709 1865.1 269.807 1861.09 196.747" stroke="#330043" stroke-width="6"/>
<path d="M1267.42 1137.07H1373.76V1205.33H1267.42V1137.07Z" fill="#F47155" stroke="#330043" stroke-width="6"/>
<path d="M1569.67 1262.45H1088.65C1089.83 1254.6 1095.66 1246.67 1106.33 1238.98C1118.29 1230.36 1135.79 1222.48 1157.68 1215.81C1201.44 1202.48 1262.06 1194.19 1329.16 1194.19C1396.25 1194.19 1456.88 1202.48 1500.63 1215.81C1522.52 1222.48 1540.02 1230.36 1551.98 1238.98C1562.65 1246.67 1568.48 1254.6 1569.67 1262.45Z" fill="#FFCD34" stroke="#330043" stroke-width="6"/>
<path d="M990.02 1332.15C1003.49 1291.61 1038.98 1263.24 1081.32 1256.39C1146.46 1245.85 1244.62 1232.27 1318.03 1232.27C1390.87 1232.27 1488.09 1245.64 1553.22 1256.14C1596.38 1263.1 1632.36 1292.38 1645.42 1333.93C1658.81 1376.54 1672.72 1431.41 1672.72 1475.39C1672.72 1519.22 1658.9 1573.89 1645.55 1616.44C1632.44 1658.21 1596.17 1687.57 1552.76 1694.38C1487.62 1704.6 1390.68 1717.55 1318.03 1717.55C1244.81 1717.55 1146.92 1704.39 1081.78 1694.14C1039.18 1687.44 1003.41 1658.99 989.888 1618.22C975.717 1575.49 960.843 1519.96 960.843 1475.39C960.843 1430.68 975.809 1374.94 990.02 1332.15Z" fill="#FF4A97" stroke="#330043" stroke-width="6"/>
<path d="M1302.2 1417.04C1310.06 1408.53 1323.5 1408.53 1331.36 1417.04L1342.86 1429.48C1345.17 1431.98 1347.94 1433.99 1351.03 1435.42L1366.41 1442.51C1376.93 1447.35 1381.08 1460.13 1375.42 1470.24L1367.14 1485.02C1365.48 1487.98 1364.42 1491.24 1364.02 1494.62L1362.03 1511.44C1360.68 1522.94 1349.8 1530.84 1338.45 1528.58L1321.83 1525.27C1318.5 1524.61 1315.07 1524.61 1311.73 1525.27L1295.12 1528.58C1283.76 1530.84 1272.89 1522.94 1271.53 1511.44L1269.54 1494.62C1269.14 1491.24 1268.08 1487.98 1266.42 1485.02L1258.14 1470.24C1252.48 1460.13 1256.63 1447.35 1267.15 1442.51L1282.54 1435.42C1285.62 1433.99 1288.4 1431.98 1290.7 1429.48L1302.2 1417.04Z" fill="#FFCD34" stroke="#330043" stroke-width="6"/>
<path d="M1639.29 955.877H1697.62C1757.89 955.877 1806.96 904.908 1806.96 841.77C1806.96 809.512 1802.93 785.839 1791.76 770.23C1780.77 754.886 1762.39 746.705 1731.89 746.705C1718.33 746.705 1703.18 750.179 1691.31 753.721C1685.4 755.484 1680.35 757.247 1676.78 758.568C1675.03 759.216 1673.64 759.756 1672.68 760.138L1639.29 955.877Z" fill="#F47155" stroke="#330043" stroke-width="6"/>
<path d="M995.224 955.877H936.893C876.619 955.877 827.547 904.908 827.547 841.77C827.547 809.512 831.581 785.839 842.754 770.23C853.738 754.886 872.122 746.705 902.618 746.705C916.186 746.705 931.33 750.179 943.204 753.721C949.115 755.484 954.163 757.247 957.73 758.568C959.478 759.216 960.868 759.756 961.827 760.138L995.224 955.877Z" fill="#F47155" stroke="#330043" stroke-width="6"/>
<path d="M1672.71 829.396C1672.71 1003.03 1513.71 1144.39 1316.78 1144.39C1119.84 1144.39 960.838 1003.03 960.838 829.396V828.998V828.6V828.203V827.806V827.41V827.015V826.621V826.227V825.834V825.441V825.049V824.658V824.267V823.877V823.488V823.1V822.712V822.324V821.938V821.552V821.166V820.782V820.398V820.015V819.632V819.25V818.869V818.488V818.108V817.729V817.35V816.972V816.595V816.218V815.842V815.467V815.092V814.718V814.345V813.973V813.601V813.229V812.859V812.489V812.12V811.751V811.383V811.016V810.649V810.284V809.918V809.554V809.19V808.827V808.464V808.103V807.742V807.381V807.021V806.662V806.304V805.946V805.589V805.233V804.877V804.522V804.168V803.814V803.462V803.109V802.758V802.407V802.057V801.707V801.359V801.011V800.663V800.316V799.97V799.625V799.281V798.937V798.593V798.251V797.909V797.568V797.227V796.888V796.549V796.21V795.872V795.536V795.199V794.864V794.529V794.195V793.861V793.528V793.196V792.865V792.534V792.204V791.875V791.546V791.219V790.891V790.565V790.239V789.914V789.59V789.266V788.943V788.621V788.3V787.979V787.659V787.339V787.021V786.703V786.386V786.069V785.753V785.438V785.124V784.81V784.497V784.185V783.873V783.563V783.252V782.943V782.634V782.327V782.019V781.713V781.407V781.102V780.798V780.494V780.191V779.889V779.587V779.287V778.987V778.687V778.389V778.091V777.794V777.497V777.202V776.907V776.613V776.319V776.026V775.734V775.443V775.153V774.863V774.574V774.285V773.998V773.711V773.425V773.139V772.854V772.57V772.287V772.005V771.723V771.442V771.162V770.882V770.603V770.325V770.048V769.771V769.495V769.22V768.946V768.672V768.399V768.127V767.856V767.585V767.315V767.046V766.777V766.51V766.243V765.977V765.711V765.446V765.182V764.919V764.657V764.395V764.134V763.874V763.614V763.356V763.098V762.841V762.584V762.328V762.073V761.819V761.566V761.313V761.061V760.81V760.56V760.31V760.061V759.813V759.565V759.319V759.073V758.828V758.583V758.34V758.097V757.855V757.614V757.373V757.133V756.894V756.656V756.418V756.182V755.946V755.711V755.476V755.242V755.01V754.777V754.546V754.315V754.086V753.857V753.628V753.401V753.174V752.948V752.723V752.498V752.275V752.052V751.83V751.609V751.388V751.168V750.949V750.731V750.514V750.297V750.081V749.866V749.652V749.438V749.225V749.013V748.802V748.592V748.382V748.173V747.965V747.758V747.551V747.346V747.141V746.936V746.733V746.53V746.329V746.128V745.927V745.728V745.529V745.332V745.135V744.938V744.743V744.548V744.354V744.161V743.969V743.777V743.587V743.397V743.207V743.019V742.832V742.645V742.459V742.274V742.089V741.906V741.723V741.541V741.36V741.18V741V740.821V740.643V740.466V740.29V740.114V739.94V739.766V739.593V739.42V739.249V739.078V738.908V738.739V738.571V738.403V738.237V738.071V737.906V737.742V737.578V737.416V737.254V737.093V736.933V736.773V736.615V736.457V736.3V736.144V735.989V735.834V735.68V735.528V735.376V735.224V735.074V734.924V734.776V734.628V734.481V734.334V734.189V734.044V733.9V733.757V733.615V733.474V733.333V733.194V733.055V732.917V732.78V732.643V732.508V732.373V732.239V732.106V731.974V731.842V731.712V731.582V731.453V731.325V731.198V731.071V730.946V730.821V730.697V730.574V730.451V730.33V730.209V730.09V729.971V729.853V729.736V729.619V729.504V729.389V729.275V729.162V729.05V728.938V728.828V728.718V728.609V728.501V728.394V728.288V728.182V728.078V727.974V727.871V727.769V727.668V727.568V727.468V727.369V727.272V727.175V727.078V726.983V726.889V726.795V726.703V726.611V726.52V726.43V726.34V726.252V726.164V726.077V725.992V725.907V725.822V725.739V725.657V725.575V725.494V725.415V725.336V725.257V725.18V725.104V725.077C962.033 725.173 963.54 725.287 965.334 725.413C970.326 725.762 977.545 726.195 986.471 726.533C1004.32 727.209 1029.02 727.508 1056.4 725.993C1111 722.974 1176.95 712.725 1220.39 683.356C1263.8 654.009 1297.89 596.692 1321.04 547.202C1332.65 522.379 1341.58 499.375 1347.61 482.577C1350.59 474.269 1352.87 467.474 1354.4 462.724C1356.08 466.396 1358.37 471.342 1361.22 477.285C1367.67 490.731 1376.95 509.289 1388.32 529.742C1411 570.564 1442.14 619.25 1475.66 649.766C1508.32 679.493 1558.2 705.596 1599.68 724.214C1620.46 733.542 1639.22 741.027 1652.78 746.179C1659.57 748.756 1665.05 750.751 1668.84 752.102C1670.45 752.673 1671.74 753.129 1672.71 753.465V753.467V753.508V753.551V753.593V753.637V753.68V753.724V753.769V753.814V753.86V753.906V753.953V754V754.048V754.096V754.145V754.194V754.243V754.294V754.344V754.396V754.448V754.5V754.553V754.606V754.66V754.715V754.77V754.825V754.881V754.938V754.995V755.053V755.111V755.17V755.229V755.289V755.349V755.41V755.472V755.534V755.597V755.66V755.724V755.789V755.854V755.919V755.985V756.052V756.119V756.187V756.256V756.325V756.395V756.465V756.536V756.607V756.679V756.752V756.825V756.899V756.974V757.049V757.125V757.201V757.278V757.355V757.434V757.512V757.592V757.672V757.753V757.834V757.916V757.999V758.082V758.166V758.25V758.336V758.421V758.508V758.595V758.683V758.771V758.86V758.95V759.041V759.132V759.223V759.316V759.409V759.503V759.597V759.692V759.788V759.885V759.982V760.08V760.178V760.277V760.377V760.478V760.579V760.681V760.784V760.888V760.992V761.097V761.202V761.308V761.415V761.523V761.631V761.741V761.85V761.961V762.072V762.184V762.297V762.411V762.525V762.64V762.756V762.872V762.989V763.107V763.226V763.345V763.466V763.587V763.708V763.831V763.954V764.078V764.203V764.328V764.455V764.582V764.71V764.838V764.968V765.098V765.229V765.361V765.493V765.627V765.761V765.896V766.031V766.168V766.305V766.443V766.582V766.722V766.863V767.004V767.146V767.289V767.433V767.578V767.723V767.869V768.016V768.164V768.313V768.463V768.613V768.764V768.916V769.069V769.223V769.378V769.533V769.69V769.847V770.005V770.164V770.323V770.484V770.645V770.808V770.971V771.135V771.3V771.466V771.633V771.8V771.969V772.138V772.308V772.479V772.651V772.824V772.998V773.172V773.348V773.525V773.702V773.88V774.059V774.239V774.42V774.602V774.785V774.969V775.154V775.339V775.526V775.713V775.901V776.091V776.281V776.472V776.664V776.857V777.051V777.246V777.442V777.639V777.836V778.035V778.235V778.435V778.637V778.839V779.043V779.247V779.453V779.659V779.866V780.075V780.284V780.494V780.705V780.918V781.131V781.345V781.56V781.776V781.993V782.212V782.431V782.651V782.872V783.094V783.317V783.541V783.767V783.993V784.22V784.448V784.677V784.908V785.139V785.371V785.605V785.839V786.074V786.311V786.548V786.787V787.026V787.267V787.508V787.751V787.995V788.239V788.485V788.732V788.98V789.229V789.479V789.73V789.982V790.235V790.49V790.745V791.001V791.259V791.517V791.777V792.038V792.3V792.562V792.826V793.092V793.358V793.625V793.893V794.163V794.433V794.705V794.978V795.252V795.527V795.803V796.08V796.358V796.638V796.918V797.2V797.483V797.767V798.052V798.338V798.625V798.914V799.204V799.494V799.786V800.079V800.373V800.669V800.965V801.263V801.562V801.862V802.163V802.465V802.768V803.073V803.379V803.686V803.994V804.303V804.614V804.925V805.238V805.552V805.867V806.184V806.501V806.82V807.14V807.461V807.783V808.107V808.432V808.758V809.085V809.413V809.743V810.073V810.405V810.739V811.073V811.409V811.745V812.084V812.423V812.763V813.105V813.448V813.793V814.138V814.485V814.833V815.182V815.532V815.884V816.237V816.591V816.947V817.304V817.662V818.021V818.381V818.743V819.106V819.471V819.836V820.203V820.571V820.941V821.311V821.683V822.057V822.431V822.807V823.184V823.563V823.942V824.323V824.706V825.089V825.474V825.861V826.248V826.637V827.027V827.419V827.812V828.206V828.601V828.998V829.396Z" fill="#F47155" stroke="#330043" stroke-width="6"/>
<circle cx="1142.51" cy="789.406" r="11.4251" fill="#330043"/>
<circle cx="1424.33" cy="789.406" r="11.4251" fill="#330043"/>
<circle cx="99.9693" cy="1047.42" r="96.9693" fill="#330043" stroke="#330043" stroke-width="6"/>
<circle cx="1069.2" cy="127.706" r="96.9693" fill="#330043" stroke="#330043" stroke-width="6"/>
<circle cx="2444.01" cy="868.43" r="96.9693" fill="#330043" stroke="#330043" stroke-width="6"/>
<path d="M949.002 909.82C949.002 909.82 964.053 984.282 961.91 1018.43C958.518 1072.48 936.198 1115.07 912.058 1113.56C887.917 1112.04 871.098 1066.99 874.49 1012.94C875.96 989.521 888.167 951.792 888.167 951.792" stroke="#FFCD34" stroke-width="6" stroke-linecap="round"/>
<path d="M1682.03 909.82C1682.03 909.82 1666.98 984.282 1669.13 1018.43C1672.52 1072.48 1694.84 1115.07 1718.98 1113.56C1743.12 1112.04 1759.94 1066.99 1756.55 1012.94C1755.08 989.521 1742.87 951.792 1742.87 951.792" stroke="#FFCD34" stroke-width="6" stroke-linecap="round"/>
<path d="M1209.19 946.506C1209.19 946.506 1271.27 991.254 1316.78 991.254C1362.28 991.254 1424.36 946.506 1424.36 946.506" stroke="#330043" stroke-width="6" stroke-linecap="round"/>
<path d="M1304.4 760.848C1304.4 760.848 1300.78 790.691 1293.93 808.452C1287.82 824.29 1272.98 846.536 1272.98 846.536" stroke="#330043" stroke-width="6" stroke-linecap="round"/>
</svg>
